<svg width="1826" height="1826" viewBox="0 0 1826 1826" fill="none" xmlns="http://www.w3.org/2000/svg">
<g clip-path="url(#clip0_682_51743)">
<mask id="mask0_682_51743" style="mask-type:luminance" maskUnits="userSpaceOnUse" x="-183" y="-183" width="2192" height="2192">
<path d="M2008.6 -182.6H-182.6V2008.6H2008.6V-182.6Z" fill="black" fill-opacity="0.969"/>
</mask>
<g mask="url(#mask0_682_51743)">
<mask id="mask1_682_51743" style="mask-type:luminance" maskUnits="userSpaceOnUse" x="277" y="676" width="128" height="89">
<path d="M404.155 676.837H277.553V764.485H404.155V676.837Z" fill="white"/>
</mask>
<g mask="url(#mask1_682_51743)">
<mask id="mask2_682_51743" style="mask-type:luminance" maskUnits="userSpaceOnUse" x="282" y="681" width="121" height="84">
<path d="M282.422 681.707H402.006V764.295H282.422V681.707Z" fill="white"/>
</mask>
<g mask="url(#mask2_682_51743)">
<path fill-rule="evenodd" clip-rule="evenodd" d="M383.327 683.571C395.786 680.375 401.226 684.864 399.647 697.018C387.645 716.534 375.167 735.745 362.214 754.613C356.374 756.972 350.611 756.649 344.943 753.643C336.612 752.369 328.3 752.369 319.969 753.643C312.075 756.002 304.39 758.874 296.934 762.279C287.557 759.026 283.391 752.635 284.457 743.087C317.382 722.963 350.345 703.124 383.327 683.571Z" fill="white"/>
</g>
</g>
</g>
<mask id="mask3_682_51743" style="mask-type:luminance" maskUnits="userSpaceOnUse" x="-183" y="-183" width="2192" height="2192">
<path d="M2008.6 -182.6H-182.6V2008.6H2008.6V-182.6Z" fill="black" fill-opacity="0.984"/>
</mask>
<g mask="url(#mask3_682_51743)">
<mask id="mask4_682_51743" style="mask-type:luminance" maskUnits="userSpaceOnUse" x="370" y="696" width="117" height="142">
<path d="M486.933 696.314H370.069V837.525H486.933V696.314Z" fill="white"/>
</mask>
<g mask="url(#mask4_682_51743)">
<mask id="mask5_682_51743" style="mask-type:luminance" maskUnits="userSpaceOnUse" x="370" y="697" width="115" height="136">
<path d="M370.45 697.684H484.994V832.656H370.45V697.684Z" fill="white"/>
</mask>
<g mask="url(#mask5_682_51743)">
<path fill-rule="evenodd" clip-rule="evenodd" d="M412.125 698.939C419.828 698.939 426.866 701.184 433.238 705.654C447.808 714.042 462.206 722.696 476.434 731.56C480.39 755.774 482.311 780.082 482.197 804.524C468.027 809.736 457.47 819.018 450.528 832.371C431.355 831.895 412.79 828.053 394.854 820.844C393.845 800.549 386.484 782.954 372.77 768.042C371.705 762.45 372.999 757.314 376.613 752.692C388.12 734.47 399.97 716.553 412.125 698.939Z" fill="white"/>
</g>
</g>
</g>
<mask id="mask6_682_51743" style="mask-type:luminance" maskUnits="userSpaceOnUse" x="-183" y="-183" width="2192" height="2192">
<path d="M2008.6 -182.6H-182.6V2008.6H2008.6V-182.6Z" fill="black" fill-opacity="0.966"/>
</mask>
<g mask="url(#mask6_682_51743)">
<mask id="mask7_682_51743" style="mask-type:luminance" maskUnits="userSpaceOnUse" x="486" y="745" width="74" height="74">
<path d="M559.974 745.008H486.934V818.048H559.974V745.008Z" fill="white"/>
</mask>
<g mask="url(#mask7_682_51743)">
<mask id="mask8_682_51743" style="mask-type:luminance" maskUnits="userSpaceOnUse" x="489" y="745" width="71" height="69">
<path d="M489.653 745.598H559.783V813.179H489.653V745.598Z" fill="white"/>
</mask>
<g mask="url(#mask8_682_51743)">
<path fill-rule="evenodd" clip-rule="evenodd" d="M494.675 746.929C498.574 746.625 502.417 746.929 506.202 747.88C523.149 757.333 539.793 767.243 556.113 777.648C558.015 780.71 558.319 783.905 557.083 787.253C549.075 795.242 541.086 803.25 533.078 811.238C529.236 812.532 525.394 812.532 521.552 811.238C512.859 807.72 504.547 803.896 496.596 799.731C494.675 785.028 492.773 770.306 490.833 755.564C490.871 752.046 492.164 749.173 494.675 746.929Z" fill="white"/>
</g>
</g>
</g>
<mask id="mask9_682_51743" style="mask-type:luminance" maskUnits="userSpaceOnUse" x="-183" y="-183" width="2192" height="2192">
<path d="M2008.6 -182.6H-182.6V2008.6H2008.6V-182.6Z" fill="black" fill-opacity="0.979"/>
</mask>
<g mask="url(#mask9_682_51743)">
<mask id="mask10_682_51743" style="mask-type:luminance" maskUnits="userSpaceOnUse" x="185" y="749" width="108" height="104">
<path d="M292.16 749.877H185.035V852.133H292.16V749.877Z" fill="white"/>
</mask>
<g mask="url(#mask10_682_51743)">
<mask id="mask11_682_51743" style="mask-type:luminance" maskUnits="userSpaceOnUse" x="189" y="752" width="99" height="100">
<path d="M189.904 752.598H287.291V851.943H189.904V752.598Z" fill="white"/>
</mask>
<g mask="url(#mask11_682_51743)">
<path fill-rule="evenodd" clip-rule="evenodd" d="M260.452 754.614C273.101 755.051 281.413 761.461 285.427 773.806C275.46 789.84 270.99 807.13 271.979 825.638C257.066 832.637 241.717 838.724 225.91 843.879C215.924 848.082 205.672 850.631 195.192 851.563C194.222 850.593 193.271 849.642 192.301 848.672C191.026 830.754 191.026 812.837 192.301 794.919C215.62 782.156 238.331 768.727 260.452 754.614Z" fill="white"/>
</g>
</g>
</g>
<mask id="mask12_682_51743" style="mask-type:luminance" maskUnits="userSpaceOnUse" x="-183" y="-183" width="2192" height="2192">
<path d="M2008.6 -182.6H-182.6V2008.6H2008.6V-182.6Z" fill="black" fill-opacity="0.982"/>
</mask>
<g mask="url(#mask12_682_51743)">
<mask id="mask13_682_51743" style="mask-type:luminance" maskUnits="userSpaceOnUse" x="511" y="783" width="84" height="182">
<path d="M594.059 783.963H511.28V964.128H594.059V783.963Z" fill="white"/>
</mask>
<g mask="url(#mask13_682_51743)">
<mask id="mask14_682_51743" style="mask-type:luminance" maskUnits="userSpaceOnUse" x="511" y="788" width="79" height="172">
<path d="M511.87 788.832H589.19V959.259H511.87V788.832Z" fill="white"/>
</mask>
<g mask="url(#mask14_682_51743)">
<path fill-rule="evenodd" clip-rule="evenodd" d="M571.481 789.175C578.234 788.87 583.693 791.438 587.801 796.84C589.075 841.006 589.075 885.154 587.801 929.32C572.337 940.086 556.017 949.691 538.841 958.118C532.546 955.131 526.459 951.936 520.6 948.512C516.53 933.295 513.962 917.946 512.916 902.444C532.945 892.134 544.148 875.814 546.526 853.484C545.727 845.647 543.482 838.286 539.792 831.401C538.518 827.559 538.518 823.716 539.792 819.874C550.159 809.204 560.715 798.97 571.481 789.175Z" fill="white"/>
</g>
</g>
</g>
<mask id="mask15_682_51743" style="mask-type:luminance" maskUnits="userSpaceOnUse" x="-183" y="-183" width="2192" height="2192">
<path d="M2008.6 -182.6H-182.6V2008.6H2008.6V-182.6Z" fill="black" fill-opacity="0.979"/>
</mask>
<g mask="url(#mask15_682_51743)">
<mask id="mask16_682_51743" style="mask-type:luminance" maskUnits="userSpaceOnUse" x="355" y="827" width="118" height="186">
<path d="M472.326 827.787H355.462V1012.82H472.326V827.787Z" fill="white"/>
</mask>
<g mask="url(#mask16_682_51743)">
<mask id="mask17_682_51743" style="mask-type:luminance" maskUnits="userSpaceOnUse" x="356" y="832" width="114" height="178">
<path d="M356.432 832.656H469.796V1009.7H356.432V832.656Z" fill="white"/>
</mask>
<g mask="url(#mask17_682_51743)">
<path fill-rule="evenodd" clip-rule="evenodd" d="M391.012 833.321C408.511 836.897 425.782 841.367 442.844 846.769C444.574 859.741 448.74 871.915 455.321 883.232C460.628 887.569 464.794 892.685 467.799 898.601C452.373 933.713 436.357 968.578 419.809 1003.23C418.44 1005.99 416.195 1007.59 413.095 1008.03C410.717 1005.88 408.473 1005.88 406.362 1008.03C389.814 962.511 373.817 916.747 358.372 870.754C363.051 863.526 369.119 857.44 376.613 852.513C381.007 845.571 385.8 839.18 391.012 833.321Z" fill="white"/>
</g>
</g>
</g>
<mask id="mask18_682_51743" style="mask-type:luminance" maskUnits="userSpaceOnUse" x="-183" y="-183" width="2192" height="2192">
<path d="M2008.6 -182.6H-182.6V2008.6H2008.6V-182.6Z" fill="black" fill-opacity="0.985"/>
</mask>
<g mask="url(#mask18_682_51743)">
<mask id="mask19_682_51743" style="mask-type:luminance" maskUnits="userSpaceOnUse" x="185" y="837" width="117" height="147">
<path d="M301.899 837.525H185.035V983.605H301.899V837.525Z" fill="white"/>
</mask>
<g mask="url(#mask19_682_51743)">
<mask id="mask20_682_51743" style="mask-type:luminance" maskUnits="userSpaceOnUse" x="189" y="837" width="112" height="146">
<path d="M189.904 837.906H300.339V982.826H189.904V837.906Z" fill="white"/>
</mask>
<g mask="url(#mask20_682_51743)">
<path fill-rule="evenodd" clip-rule="evenodd" d="M270.058 839.085C273.329 838.781 276.525 839.085 279.663 840.036C285.027 847.34 291.114 854.055 297.904 860.198C298.209 862.119 298.532 864.041 298.855 865.962C289.478 887.912 279.568 909.672 269.107 931.241C240.842 933.904 223.247 948.95 216.305 976.359C209.438 979.193 202.401 980.467 195.192 980.182C194.222 979.231 193.271 978.261 192.301 977.31C191.026 941.474 191.026 905.639 192.301 869.804C194.031 867.483 196.276 865.886 199.034 864.992C223.114 856.87 246.795 848.234 270.058 839.085Z" fill="white"/>
</g>
</g>
</g>
<mask id="mask21_682_51743" style="mask-type:luminance" maskUnits="userSpaceOnUse" x="-183" y="-183" width="2192" height="2192">
<path d="M2008.6 -182.6H-182.6V2008.6H2008.6V-182.6Z" fill="black" fill-opacity="0.981"/>
</mask>
<g mask="url(#mask21_682_51743)">
<mask id="mask22_682_51743" style="mask-type:luminance" maskUnits="userSpaceOnUse" x="277" y="866" width="123" height="157">
<path d="M399.286 866.741H277.553V1022.56H399.286V866.741Z" fill="white"/>
</mask>
<g mask="url(#mask22_682_51743)">
<mask id="mask23_682_51743" style="mask-type:luminance" maskUnits="userSpaceOnUse" x="278" y="868" width="117" height="152">
<path d="M278.143 868.301H394.417V1019.06H278.143V868.301Z" fill="white"/>
</mask>
<g mask="url(#mask23_682_51743)">
<path fill-rule="evenodd" clip-rule="evenodd" d="M312.304 869.803C323.165 870.697 334.045 871.667 344.944 872.675C345.895 873.645 346.846 874.596 347.816 875.567C362.861 919.391 377.888 963.234 392.933 1007.06C390.099 1016.93 383.689 1020.12 373.741 1016.66C346.732 1004.93 320.178 992.45 294.063 979.23C293.606 971.394 292.332 963.709 290.221 956.196C286.588 950.033 283.069 943.965 279.664 937.955C288.756 914.331 299.636 891.62 312.304 869.803Z" fill="white"/>
</g>
</g>
</g>
<mask id="mask24_682_51743" style="mask-type:luminance" maskUnits="userSpaceOnUse" x="-183" y="-183" width="2192" height="2192">
<path d="M2008.6 -182.6H-182.6V2008.6H2008.6V-182.6Z" fill="black" fill-opacity="0.971"/>
</mask>
<g mask="url(#mask24_682_51743)">
<mask id="mask25_682_51743" style="mask-type:luminance" maskUnits="userSpaceOnUse" x="423" y="900" width="89" height="118">
<path d="M511.281 900.827H423.633V1017.69H511.281V900.827Z" fill="white"/>
</mask>
<g mask="url(#mask25_682_51743)">
<mask id="mask26_682_51743" style="mask-type:luminance" maskUnits="userSpaceOnUse" x="428" y="901" width="82" height="116">
<path d="M428.502 901.017H509.531V1016.72H428.502V901.017Z" fill="white"/>
</mask>
<g mask="url(#mask26_682_51743)">
<path fill-rule="evenodd" clip-rule="evenodd" d="M481.247 902.444C487.638 903.072 494.048 903.718 500.439 904.365C502.874 918.764 505.441 933.162 508.123 947.561C507.8 949.787 507.477 952.031 507.153 954.276C498.27 961.732 493.782 971.337 493.724 983.073C476.606 994.353 458.992 1004.91 440.923 1014.74C437.138 1015.69 433.295 1016.02 429.415 1015.71C429.453 1011.05 430.404 1006.56 432.287 1002.27C448.208 968.522 464.528 935.236 481.247 902.444Z" fill="white"/>
</g>
</g>
</g>
<mask id="mask27_682_51743" style="mask-type:luminance" maskUnits="userSpaceOnUse" x="-183" y="-183" width="2192" height="2192">
<path d="M2008.6 -182.6H-182.6V2008.6H2008.6V-182.6Z" fill="black" fill-opacity="0.969"/>
</mask>
<g mask="url(#mask27_682_51743)">
<mask id="mask28_682_51743" style="mask-type:luminance" maskUnits="userSpaceOnUse" x="540" y="944" width="55" height="89">
<path d="M594.059 944.65H540.496V1032.3H594.059V944.65Z" fill="white"/>
</mask>
<g mask="url(#mask28_682_51743)">
<mask id="mask29_682_51743" style="mask-type:luminance" maskUnits="userSpaceOnUse" x="541" y="949" width="49" height="79">
<path d="M541.086 949.52H589.19V1027.43H541.086V949.52Z" fill="white"/>
</mask>
<g mask="url(#mask29_682_51743)">
<path fill-rule="evenodd" clip-rule="evenodd" d="M575.323 950.432C580.193 949.672 584.358 950.946 587.801 954.275C589.075 977.956 589.075 1001.64 587.801 1025.3C585.138 1027.33 582.247 1027.64 579.147 1026.27C565.87 1013.96 553.716 1000.84 542.684 986.914C543.901 981.189 544.871 975.445 545.556 969.624C555.428 962.948 565.356 956.538 575.323 950.432Z" fill="white"/>
</g>
</g>
</g>
<mask id="mask30_682_51743" style="mask-type:luminance" maskUnits="userSpaceOnUse" x="-183" y="-183" width="2192" height="2192">
<path d="M2008.6 -182.6H-182.6V2008.6H2008.6V-182.6Z" fill="black" fill-opacity="0.982"/>
</mask>
<g mask="url(#mask30_682_51743)">
<mask id="mask31_682_51743" style="mask-type:luminance" maskUnits="userSpaceOnUse" x="185" y="983" width="93" height="89">
<path d="M277.552 983.605H185.035V1071.25H277.552V983.605Z" fill="white"/>
</mask>
<g mask="url(#mask31_682_51743)">
<mask id="mask32_682_51743" style="mask-type:luminance" maskUnits="userSpaceOnUse" x="189" y="985" width="84" height="85">
<path d="M189.904 985.165H272.683V1069.31H189.904V985.165Z" fill="white"/>
</mask>
<g mask="url(#mask32_682_51743)">
<path fill-rule="evenodd" clip-rule="evenodd" d="M218.226 986.915C224.655 987.885 229.125 991.404 231.655 997.472C240.119 1004.01 249.724 1006.91 260.452 1006.11C264.447 1023 268.289 1039.96 271.979 1056.99C272.626 1063.38 269.753 1066.9 263.343 1067.54C239.035 1054.42 215.354 1040.34 192.301 1025.3C191.026 1015.71 191.026 1006.11 192.301 996.502C201.05 993.059 209.686 989.863 218.226 986.915Z" fill="white"/>
</g>
</g>
</g>
<mask id="mask33_682_51743" style="mask-type:luminance" maskUnits="userSpaceOnUse" x="-183" y="-183" width="2192" height="2192">
<path d="M2008.6 -182.6H-182.6V2008.6H2008.6V-182.6Z" fill="black" fill-opacity="0.983"/>
</mask>
<g mask="url(#mask33_682_51743)">
<mask id="mask34_682_51743" style="mask-type:luminance" maskUnits="userSpaceOnUse" x="267" y="988" width="118" height="123">
<path d="M384.677 988.475H267.813V1110.21H384.677V988.475Z" fill="white"/>
</mask>
<g mask="url(#mask34_682_51743)">
<mask id="mask35_682_51743" style="mask-type:luminance" maskUnits="userSpaceOnUse" x="269" y="991" width="112" height="117">
<path d="M269.963 991.004H380.968V1107.87H269.963V991.004Z" fill="white"/>
</mask>
<g mask="url(#mask35_682_51743)">
<path fill-rule="evenodd" clip-rule="evenodd" d="M283.506 992.659C291 992.222 298.038 993.82 304.619 997.472C328.985 1007.9 352.989 1019.1 376.613 1031.06C378.858 1040.63 380.132 1050.24 380.455 1059.86C365.353 1075.61 349.68 1090.64 333.417 1104.98C329.974 1105.99 326.779 1105.34 323.811 1103.06C314.852 1097.94 305.894 1092.82 296.935 1087.71C294.063 1086.11 291.818 1083.86 290.22 1080.97C284.134 1056.66 278.066 1032.34 271.979 1008.03C275.061 1002.38 278.903 997.262 283.506 992.659Z" fill="white"/>
</g>
</g>
</g>
<mask id="mask36_682_51743" style="mask-type:luminance" maskUnits="userSpaceOnUse" x="-183" y="-183" width="2192" height="2192">
<path d="M2008.6 -182.6H-182.6V2008.6H2008.6V-182.6Z" fill="black" fill-opacity="0.984"/>
</mask>
<g mask="url(#mask36_682_51743)">
<mask id="mask37_682_51743" style="mask-type:luminance" maskUnits="userSpaceOnUse" x="433" y="993" width="137" height="103">
<path d="M569.712 993.344H433.371V1095.6H569.712V993.344Z" fill="white"/>
</mask>
<g mask="url(#mask37_682_51743)">
<mask id="mask38_682_51743" style="mask-type:luminance" maskUnits="userSpaceOnUse" x="437" y="993" width="133" height="98">
<path d="M437.08 993.344H569.123V1090.73H437.08V993.344Z" fill="white"/>
</mask>
<g mask="url(#mask38_682_51743)">
<path fill-rule="evenodd" clip-rule="evenodd" d="M496.596 994.58C502.226 994.504 507.343 996.102 511.965 999.393C518.774 1000.76 525.489 1000.44 532.127 998.422C546.526 1007.7 558.357 1019.55 567.639 1033.95C566.478 1037.03 564.557 1039.58 561.875 1041.62C534.048 1057.14 506.525 1073.14 479.325 1089.63C475.483 1090.9 471.641 1090.9 467.798 1089.63C457.185 1079.64 447.256 1069.08 438.05 1057.94C439.819 1047.95 441.093 1037.7 441.892 1027.22C460.399 1016.53 478.64 1005.65 496.596 994.58Z" fill="white"/>
</g>
</g>
</g>
<mask id="mask39_682_51743" style="mask-type:luminance" maskUnits="userSpaceOnUse" x="-183" y="-183" width="2192" height="2192">
<path d="M2008.6 -182.6H-182.6V2008.6H2008.6V-182.6Z" fill="black" fill-opacity="0.977"/>
</mask>
<g mask="url(#mask39_682_51743)">
<mask id="mask40_682_51743" style="mask-type:luminance" maskUnits="userSpaceOnUse" x="345" y="1061" width="118" height="84">
<path d="M462.587 1061.51H345.723V1144.29H462.587V1061.51Z" fill="white"/>
</mask>
<g mask="url(#mask40_682_51743)">
<mask id="mask41_682_51743" style="mask-type:luminance" maskUnits="userSpaceOnUse" x="347" y="1066" width="111" height="74">
<path d="M347.092 1066.38H457.717V1139.42H347.092V1066.38Z" fill="white"/>
</mask>
<g mask="url(#mask41_682_51743)">
<path fill-rule="evenodd" clip-rule="evenodd" d="M387.169 1067.54C401.891 1069.77 416.613 1070.09 431.335 1068.49C439.324 1076.5 447.332 1084.49 455.321 1092.5C456.614 1095.69 456.614 1098.89 455.321 1102.1C435.634 1114.66 415.491 1126.51 394.853 1137.62C385.819 1137.92 377.506 1135.37 369.898 1129.93C363.165 1125.77 356.45 1121.62 349.736 1117.45C348.462 1113.61 348.462 1109.77 349.736 1105.95C362.594 1093.39 375.072 1080.59 387.169 1067.54Z" fill="white"/>
</g>
</g>
</g>
<path d="M664.621 902.748V734.299H722.14C741.865 734.299 758.089 737.799 770.833 744.799C783.615 751.76 793.088 761.537 799.289 774.167C805.47 786.759 808.571 801.538 808.571 818.524C808.571 835.528 805.47 850.326 799.289 862.956C793.088 875.548 783.615 885.325 770.833 892.324C758.089 899.286 741.865 902.748 722.14 902.748H664.621ZM695.435 876.271H720.695C734.789 876.271 745.916 873.988 754.095 869.423C762.312 864.858 768.171 858.296 771.67 849.718C775.208 841.101 776.996 830.697 776.996 818.524C776.996 806.502 775.208 796.155 771.67 787.482C768.171 778.808 762.312 772.17 754.095 767.548C745.916 762.888 734.789 760.548 720.695 760.548H695.435V876.271Z" fill="white"/>
<path d="M893.001 905.639C880.98 905.639 870.29 903.071 860.97 897.955C851.688 892.838 844.384 885.629 839.058 876.347C833.77 867.027 831.146 856.242 831.146 844.012C831.146 831.686 833.751 820.711 838.982 811.067C844.194 801.443 851.403 793.93 860.59 788.547C869.815 783.183 880.695 780.482 893.23 780.482C904.946 780.482 915.294 783.069 924.272 788.242C933.249 793.378 940.249 800.397 945.271 809.318C950.33 818.2 952.879 828.091 952.879 838.99C952.879 840.778 952.822 842.623 952.727 844.544C952.67 846.484 952.575 848.481 952.422 850.555H861.731C862.34 859.837 865.554 867.141 871.394 872.467C877.271 877.754 884.404 880.379 892.773 880.379C899.012 880.379 904.262 878.991 908.522 876.195C912.783 873.361 915.94 869.709 918.033 865.239H949.303C947.058 872.752 943.33 879.6 938.119 885.781C932.888 891.982 926.478 896.851 918.87 900.389C911.261 903.889 902.626 905.639 893.001 905.639ZM893.23 805.513C885.659 805.513 879.002 807.644 873.22 811.904C867.475 816.165 863.804 822.632 862.188 831.306H921.609C921.152 823.45 918.261 817.192 912.935 812.513C907.647 807.853 901.085 805.513 893.23 805.513Z" fill="white"/>
<path d="M984.402 902.748V809.165H968.044V783.373H984.402V769.45C984.402 754.994 988.054 744.723 995.358 738.636C1002.66 732.549 1012.57 729.506 1025.11 729.506H1038.34V755.679H1029.9C1024.61 755.679 1020.85 756.744 1018.56 758.874C1016.32 760.966 1015.22 764.485 1015.22 769.45V783.373H1041.01V809.165H1015.22V902.748H984.402Z" fill="white"/>
<path d="M1106.4 905.639C1096.14 905.639 1087.72 903.984 1081.14 900.694C1074.59 897.403 1069.69 893.047 1066.45 887.607C1063.26 882.129 1061.66 876.119 1061.66 869.576C1061.66 858.467 1066 849.471 1074.67 842.566C1083.34 835.68 1096.32 832.219 1113.62 832.219H1143.98V829.327C1143.98 821.168 1141.64 815.157 1136.98 811.296C1132.3 807.453 1126.52 805.513 1119.63 805.513C1113.4 805.513 1107.94 807.016 1103.28 810.002C1098.65 812.95 1095.76 817.306 1094.6 823.089H1064.55C1065.35 814.415 1068.28 806.883 1073.3 800.492C1078.36 794.063 1084.9 789.117 1092.93 785.656C1100.94 782.213 1109.93 780.482 1119.94 780.482C1136.92 780.482 1150.32 784.743 1160.11 793.264C1169.89 801.747 1174.8 813.768 1174.8 829.327V902.748H1148.55L1145.66 883.499C1142.1 889.89 1137.15 895.197 1130.82 899.4C1124.52 903.547 1116.38 905.639 1106.4 905.639ZM1113.4 881.597C1122.22 881.597 1129.07 878.706 1133.94 872.923C1138.85 867.141 1141.95 859.989 1143.22 851.468H1117.05C1108.83 851.468 1102.93 852.97 1099.4 855.957C1095.9 858.905 1094.15 862.557 1094.15 866.913C1094.15 871.535 1095.9 875.13 1099.4 877.716C1102.93 880.303 1107.61 881.597 1113.4 881.597Z" fill="white"/>
<path d="M1204.16 902.748V783.373H1231.32L1233.75 803.611C1237.4 796.574 1242.73 790.962 1249.73 786.797C1256.73 782.593 1264.95 780.482 1274.38 780.482C1289.14 780.482 1300.59 785.161 1308.77 794.481C1316.99 803.763 1321.1 817.382 1321.1 835.338V902.748H1290.28V838.229C1290.28 827.996 1288.17 820.159 1283.97 814.719C1279.8 809.241 1273.33 806.502 1264.57 806.502C1255.89 806.502 1248.76 809.546 1243.19 815.632C1237.65 821.719 1234.89 830.221 1234.89 841.12V902.748H1204.16Z" fill="white"/>
<path d="M1400.98 867.141C1395.2 867.141 1389.81 866.513 1384.85 865.239L1375.95 874.141C1378.69 875.567 1382.36 876.765 1386.98 877.716C1391.64 878.687 1399.19 879.657 1409.65 880.608C1425.52 882.034 1437.06 885.819 1444.27 891.944C1451.46 898.031 1455.07 906.438 1455.07 917.204C1455.07 924.241 1453.13 930.937 1449.29 937.29C1445.49 943.624 1439.55 948.74 1431.49 952.659C1423.46 956.615 1413.23 958.593 1400.75 958.593C1383.71 958.593 1369.96 955.417 1359.51 949.083C1349.11 942.73 1343.92 933.219 1343.92 920.551C1343.92 909.786 1349.13 900.503 1359.59 892.629C1356.39 891.221 1353.62 889.7 1351.3 888.064C1348.96 886.447 1346.9 884.773 1345.13 883.042V877.488L1366.06 855.348C1356.78 847.188 1352.13 836.689 1352.13 823.849C1352.13 815.785 1354.07 808.481 1357.99 801.937C1361.95 795.356 1367.52 790.125 1374.73 786.264C1381.92 782.422 1390.67 780.482 1400.98 780.482C1407.71 780.482 1413.99 781.452 1419.77 783.373H1464.97V802.166L1444.5 803.611C1447.73 809.698 1449.37 816.45 1449.37 823.849C1449.37 831.876 1447.43 839.18 1443.59 845.761C1439.72 852.305 1434.15 857.516 1426.85 861.359C1419.54 865.22 1410.91 867.141 1400.98 867.141ZM1400.98 843.555C1407.22 843.555 1412.35 841.881 1416.42 838.534C1420.53 835.148 1422.59 830.317 1422.59 824.078C1422.59 817.801 1420.53 812.97 1416.42 809.622C1412.35 806.236 1407.22 804.524 1400.98 804.524C1394.38 804.524 1389.07 806.236 1385.08 809.622C1381.06 812.97 1379.07 817.801 1379.07 824.078C1379.07 830.317 1381.06 835.148 1385.08 838.534C1389.07 841.881 1394.38 843.555 1400.98 843.555ZM1372.07 917.432C1372.07 923.366 1374.83 927.798 1380.36 930.747C1385.93 933.733 1392.72 935.235 1400.75 935.235C1408.4 935.235 1414.64 933.657 1419.47 930.518C1424.28 927.418 1426.7 923.214 1426.7 917.888C1426.7 913.571 1425.12 909.976 1421.98 907.085C1418.88 904.193 1412.66 902.425 1403.34 901.759C1396.79 901.302 1390.71 900.599 1385.08 899.628C1380.4 902.177 1377.05 904.954 1375.04 907.998C1373.06 911.079 1372.07 914.236 1372.07 917.432Z" fill="white"/>
<path d="M706.335 1112.72C697.7 1112.72 690.282 1110.82 684.043 1107.01C677.842 1103.21 673.03 1097.92 669.587 1091.11C666.182 1084.32 664.489 1076.41 664.489 1067.37C664.489 1058.45 666.182 1050.6 669.587 1043.79C673.03 1037 677.842 1031.69 684.043 1027.89C690.282 1024.04 697.7 1022.1 706.335 1022.1C716.321 1022.1 724.462 1024.52 730.758 1029.33C737.092 1034.11 741.124 1040.78 742.855 1049.34H731.214C729.883 1043.92 727.144 1039.56 722.997 1036.25C718.889 1032.96 713.335 1031.31 706.335 1031.31C700.039 1031.31 694.561 1032.75 689.901 1035.65C685.222 1038.54 681.627 1042.68 679.097 1048.05C676.548 1053.43 675.293 1059.88 675.293 1067.37C675.293 1074.89 676.548 1081.35 679.097 1086.77C681.627 1092.16 685.222 1096.28 689.901 1099.18C694.561 1102.03 700.039 1103.44 706.335 1103.44C713.335 1103.44 718.889 1101.84 722.997 1098.64C727.144 1095.41 729.883 1091.11 731.214 1085.78H742.855C741.124 1094.21 737.092 1100.81 730.758 1105.57C724.462 1110.34 716.321 1112.72 706.335 1112.72Z" fill="white"/>
<path d="M757.403 1111.2V1021.11H767.903V1111.2H757.403Z" fill="white"/>
<path d="M813.411 1112.72C807.572 1112.72 802.322 1111.37 797.662 1108.69C792.983 1106 789.293 1102.22 786.554 1097.35C783.853 1092.48 782.521 1086.75 782.521 1080.15C782.521 1073.57 783.891 1067.83 786.63 1062.96C789.407 1058.09 793.135 1054.32 797.814 1051.62C802.531 1048.94 807.819 1047.59 813.716 1047.59C819.536 1047.59 824.786 1048.94 829.465 1051.62C834.125 1054.32 837.796 1058.09 840.497 1062.96C843.236 1067.83 844.605 1073.57 844.605 1080.15C844.605 1086.75 843.198 1092.48 840.421 1097.35C837.682 1102.22 833.954 1106 829.237 1108.69C824.519 1111.37 819.232 1112.72 813.411 1112.72ZM813.411 1103.66C817.006 1103.66 820.354 1102.81 823.454 1101.08C826.536 1099.31 829.027 1096.66 830.91 1093.16C832.832 1089.66 833.802 1085.33 833.802 1080.15C833.802 1074.98 832.851 1070.64 830.987 1067.14C829.104 1063.64 826.612 1061.04 823.53 1059.31C820.487 1057.54 817.215 1056.64 813.716 1056.64C810.102 1056.64 806.754 1057.54 803.673 1059.31C800.572 1061.04 798.062 1063.64 796.14 1067.14C794.2 1070.64 793.249 1074.98 793.249 1080.15C793.249 1085.33 794.2 1089.66 796.14 1093.16C798.062 1096.66 800.553 1099.31 803.597 1101.08C806.64 1102.81 809.911 1103.66 813.411 1103.66Z" fill="white"/>
<path d="M881.863 1112.72C874.502 1112.72 868.643 1110.49 864.287 1106.02C859.97 1101.57 857.82 1094.69 857.82 1085.4V1049.11H868.396V1084.26C868.396 1097.2 873.684 1103.66 884.297 1103.66C889.661 1103.66 894.131 1101.74 897.688 1097.88C901.226 1093.98 903.014 1088.45 903.014 1081.3V1049.11H913.513V1111.2H904.003L903.318 1100.09C901.378 1104.01 898.525 1107.09 894.721 1109.37C890.917 1111.6 886.618 1112.72 881.863 1112.72Z" fill="white"/>
<path d="M958.995 1112.72C952.795 1112.72 947.374 1111.29 942.714 1108.46C938.091 1105.62 934.516 1101.74 931.986 1096.82C929.437 1091.91 928.182 1086.3 928.182 1080C928.182 1073.76 929.475 1068.21 932.062 1063.34C934.649 1058.47 938.225 1054.65 942.79 1051.85C947.393 1049.02 952.833 1047.59 959.071 1047.59C964.188 1047.59 968.696 1048.66 972.614 1050.79C976.514 1052.88 979.557 1055.79 981.744 1059.54V1021.11H992.244V1111.2H982.733L981.744 1100.93C979.766 1103.93 976.875 1106.63 973.071 1109.07C969.305 1111.5 964.626 1112.72 958.995 1112.72ZM960.061 1103.59C964.264 1103.59 967.973 1102.6 971.169 1100.62C974.364 1098.64 976.837 1095.9 978.625 1092.4C980.451 1088.9 981.364 1084.83 981.364 1080.15C981.364 1075.49 980.451 1071.4 978.625 1067.91C976.837 1064.41 974.364 1061.67 971.169 1059.69C967.973 1057.71 964.264 1056.72 960.061 1056.72C955.99 1056.72 952.338 1057.71 949.105 1059.69C945.909 1061.67 943.398 1064.41 941.572 1067.91C939.784 1071.4 938.909 1075.49 938.909 1080.15C938.909 1084.83 939.784 1088.9 941.572 1092.4C943.398 1095.9 945.909 1098.64 949.105 1100.62C952.338 1102.6 955.99 1103.59 960.061 1103.59Z" fill="white"/>
<path d="M1000.99 1126.11L1008.29 1098.41H1019.17L1008.29 1126.11H1000.99Z" fill="white"/>
<path d="M1093.4 1112.72C1086.95 1112.72 1081.34 1111.54 1076.58 1109.22C1071.81 1106.9 1068.14 1103.65 1065.55 1099.48C1062.97 1095.28 1061.67 1090.43 1061.67 1084.95H1072.7C1072.7 1088.35 1073.48 1091.49 1075.06 1094.38C1076.68 1097.24 1079.02 1099.52 1082.06 1101.23C1085.11 1102.96 1088.87 1103.82 1093.4 1103.82C1099.28 1103.82 1103.84 1102.41 1107.09 1099.56C1110.38 1096.72 1112.04 1093.16 1112.04 1088.9C1112.04 1085.4 1111.28 1082.59 1109.76 1080.46C1108.23 1078.33 1106.2 1076.62 1103.67 1075.29C1101.12 1073.97 1098.21 1072.81 1094.92 1071.79C1091.61 1070.78 1088.17 1069.64 1084.57 1068.36C1077.82 1066.04 1072.82 1063.15 1069.58 1059.69C1066.33 1056.25 1064.72 1051.74 1064.72 1046.15C1064.6 1041.43 1065.67 1037.28 1067.91 1033.67C1070.19 1030.02 1073.39 1027.18 1077.5 1025.15C1081.64 1023.13 1086.57 1022.1 1092.26 1022.1C1097.83 1022.1 1102.68 1023.15 1106.79 1025.22C1110.94 1027.31 1114.17 1030.21 1116.45 1033.9C1118.73 1037.55 1119.91 1041.71 1120.03 1046.37H1109C1109 1043.94 1108.35 1041.54 1107.09 1039.15C1105.88 1036.77 1103.97 1034.85 1101.39 1033.36C1098.84 1031.84 1095.68 1031.08 1091.88 1031.08C1087.1 1031.04 1083.2 1032.26 1080.16 1034.73C1077.12 1037.22 1075.6 1040.67 1075.6 1045.08C1075.6 1048.85 1076.66 1051.74 1078.79 1053.75C1080.92 1055.73 1083.89 1057.39 1087.69 1058.7C1091.53 1059.97 1095.99 1061.44 1101.01 1063.11C1105.15 1064.63 1108.92 1066.42 1112.27 1068.44C1115.61 1070.42 1118.22 1073 1120.1 1076.2C1121.97 1079.36 1122.92 1083.39 1122.92 1088.3C1122.92 1092.46 1121.82 1096.42 1119.65 1100.16C1117.46 1103.87 1114.19 1106.9 1109.83 1109.22C1105.46 1111.54 1099.98 1112.72 1093.4 1112.72Z" fill="white"/>
<path d="M1143.51 1035.34C1141.42 1035.34 1139.71 1034.66 1138.34 1033.29C1136.97 1031.92 1136.28 1030.21 1136.28 1028.11C1136.28 1026.1 1136.97 1024.42 1138.34 1023.09C1139.71 1021.78 1141.42 1021.11 1143.51 1021.11C1145.53 1021.11 1147.26 1021.78 1148.68 1023.09C1150.09 1024.42 1150.82 1026.1 1150.82 1028.11C1150.82 1030.21 1150.09 1031.92 1148.68 1033.29C1147.26 1034.66 1145.53 1035.34 1143.51 1035.34ZM1138.26 1111.2V1049.11H1148.76V1111.2H1138.26Z" fill="white"/>
<path d="M1167.1 1111.2V1049.11H1176.61L1177.3 1058.17C1179.32 1054.82 1181.98 1052.23 1185.29 1050.41C1188.64 1048.54 1192.4 1047.59 1196.62 1047.59C1201.53 1047.59 1205.77 1048.62 1209.33 1050.63C1212.87 1052.61 1215.59 1055.66 1217.47 1059.76C1219.64 1056.02 1222.65 1053.05 1226.45 1050.86C1230.25 1048.69 1234.36 1047.59 1238.77 1047.59C1246.17 1047.59 1252.09 1049.84 1256.5 1054.29C1260.95 1058.76 1263.2 1065.62 1263.2 1074.9V1111.2H1252.77V1076.05C1252.77 1069.62 1251.48 1064.77 1248.89 1061.51C1246.31 1058.28 1242.6 1056.64 1237.79 1056.64C1232.76 1056.64 1228.6 1058.6 1225.31 1062.5C1222 1066.36 1220.36 1071.86 1220.36 1079.01V1111.2H1209.86V1076.05C1209.86 1069.62 1208.57 1064.77 1205.98 1061.51C1203.4 1058.28 1199.69 1056.64 1194.87 1056.64C1189.95 1056.64 1185.84 1058.6 1182.55 1062.5C1179.24 1066.36 1177.6 1071.86 1177.6 1079.01V1111.2H1167.1Z" fill="white"/>
<path d="M1279.1 1138.74V1049.11H1288.61L1289.6 1059.38C1291.58 1056.4 1294.41 1053.68 1298.12 1051.24C1301.87 1048.81 1306.61 1047.59 1312.35 1047.59C1318.53 1047.59 1323.92 1049.02 1328.48 1051.85C1333.08 1054.7 1336.66 1058.58 1339.21 1063.49C1341.74 1068.42 1343.01 1074.03 1343.01 1080.31C1343.01 1086.55 1341.74 1092.14 1339.21 1097.04C1336.66 1101.91 1333.06 1105.76 1328.4 1108.53C1323.78 1111.31 1318.38 1112.72 1312.2 1112.72C1307.12 1112.72 1302.61 1111.67 1298.66 1109.6C1294.7 1107.47 1291.68 1104.54 1289.6 1100.77V1138.74H1279.1ZM1311.13 1103.59C1315.28 1103.59 1318.93 1102.6 1322.09 1100.62C1325.29 1098.64 1327.8 1095.9 1329.62 1092.4C1331.45 1088.9 1332.36 1084.83 1332.36 1080.15C1332.36 1075.49 1331.45 1071.4 1329.62 1067.91C1327.8 1064.41 1325.29 1061.67 1322.09 1059.69C1318.93 1057.71 1315.28 1056.72 1311.13 1056.72C1306.91 1056.72 1303.22 1057.71 1300.03 1059.69C1296.87 1061.67 1294.4 1064.41 1292.57 1067.91C1290.74 1071.4 1289.83 1075.49 1289.83 1080.15C1289.83 1084.83 1290.74 1088.9 1292.57 1092.4C1294.4 1095.9 1296.87 1098.64 1300.03 1100.62C1303.22 1102.6 1306.91 1103.59 1311.13 1103.59Z" fill="white"/>
<path d="M1357.69 1111.2V1021.11H1368.19V1111.2H1357.69Z" fill="white"/>
<path d="M1391.78 1035.34C1389.69 1035.34 1387.98 1034.66 1386.61 1033.29C1385.24 1031.92 1384.56 1030.21 1384.56 1028.11C1384.56 1026.1 1385.24 1024.42 1386.61 1023.09C1387.98 1021.78 1389.69 1021.11 1391.78 1021.11C1393.8 1021.11 1395.53 1021.78 1396.96 1023.09C1398.37 1024.42 1399.09 1026.1 1399.09 1028.11C1399.09 1030.21 1398.37 1031.92 1396.96 1033.29C1395.53 1034.66 1393.8 1035.34 1391.78 1035.34ZM1386.53 1111.2V1049.11H1397.03V1111.2H1386.53Z" fill="white"/>
<path d="M1418.73 1111.2V1058.01H1409.37V1049.11H1418.73V1038.38C1418.73 1032.36 1420.21 1027.96 1423.21 1025.22C1426.2 1022.48 1430.59 1021.11 1436.38 1021.11H1442.62V1030.09H1437.97C1434.82 1030.09 1432.57 1030.76 1431.2 1032.07C1429.87 1033.34 1429.22 1035.53 1429.22 1038.61V1049.11H1444.52V1058.01H1429.22V1111.2H1418.73Z" fill="white"/>
<path d="M1463.36 1035.34C1461.27 1035.34 1459.56 1034.66 1458.19 1033.29C1456.82 1031.92 1456.14 1030.21 1456.14 1028.11C1456.14 1026.1 1456.82 1024.42 1458.19 1023.09C1459.56 1021.78 1461.27 1021.11 1463.36 1021.11C1465.38 1021.11 1467.11 1021.78 1468.54 1023.09C1469.94 1024.42 1470.67 1026.1 1470.67 1028.11C1470.67 1030.21 1469.94 1031.92 1468.54 1033.29C1467.11 1034.66 1465.38 1035.34 1463.36 1035.34ZM1458.11 1111.2V1049.11H1468.61V1111.2H1458.11Z" fill="white"/>
<path d="M1514.8 1112.72C1508.91 1112.72 1503.66 1111.37 1499.05 1108.69C1494.49 1105.95 1490.88 1102.18 1488.25 1097.35C1485.61 1092.48 1484.29 1086.75 1484.29 1080.15C1484.29 1073.67 1485.59 1067.98 1488.17 1063.11C1490.76 1058.2 1494.36 1054.4 1498.98 1051.7C1503.64 1048.96 1509.02 1047.59 1515.11 1047.59C1521.08 1047.59 1526.25 1048.96 1530.63 1051.7C1535.04 1054.4 1538.41 1057.98 1540.75 1062.43C1543.07 1066.84 1544.25 1071.6 1544.25 1076.65C1544.25 1077.57 1544.21 1078.48 1544.17 1079.39C1544.11 1080.31 1544.1 1081.35 1544.1 1082.51H1494.64C1494.89 1087.29 1496.01 1091.24 1497.99 1094.38C1499.97 1097.48 1502.42 1099.84 1505.37 1101.46C1508.36 1103.04 1511.49 1103.82 1514.8 1103.82C1519.16 1103.82 1522.79 1102.83 1525.68 1100.85C1528.61 1098.83 1530.74 1096.11 1532.07 1092.71H1542.5C1540.82 1098.45 1537.63 1103.21 1532.91 1107.01C1528.19 1110.82 1522.15 1112.72 1514.8 1112.72ZM1514.8 1056.49C1509.82 1056.49 1505.39 1058.01 1501.49 1061.06C1497.63 1064.1 1495.4 1068.55 1494.79 1074.37H1533.82C1533.56 1068.8 1531.64 1064.44 1528.04 1061.29C1524.48 1058.09 1520.07 1056.49 1514.8 1056.49Z" fill="white"/>
<path d="M1586.31 1112.72C1580.11 1112.72 1574.69 1111.29 1570.03 1108.46C1565.41 1105.62 1561.83 1101.74 1559.3 1096.82C1556.75 1091.91 1555.5 1086.3 1555.5 1080C1555.5 1073.76 1556.79 1068.21 1559.38 1063.34C1561.96 1058.47 1565.54 1054.65 1570.11 1051.85C1574.71 1049.02 1580.15 1047.59 1586.39 1047.59C1591.5 1047.59 1596.01 1048.66 1599.93 1050.79C1603.83 1052.88 1606.87 1055.79 1609.06 1059.54V1021.11H1619.56V1111.2H1610.05L1609.06 1100.93C1607.08 1103.93 1604.19 1106.63 1600.39 1109.07C1596.62 1111.5 1591.94 1112.72 1586.31 1112.72ZM1587.38 1103.59C1591.58 1103.59 1595.29 1102.6 1598.48 1100.62C1601.68 1098.64 1604.15 1095.9 1605.94 1092.4C1607.77 1088.9 1608.68 1084.83 1608.68 1080.15C1608.68 1075.49 1607.77 1071.4 1605.94 1067.91C1604.15 1064.41 1601.68 1061.67 1598.48 1059.69C1595.29 1057.71 1591.58 1056.72 1587.38 1056.72C1583.31 1056.72 1579.65 1057.71 1576.42 1059.69C1573.22 1061.67 1570.71 1064.41 1568.89 1067.91C1567.1 1071.4 1566.22 1075.49 1566.22 1080.15C1566.22 1084.83 1567.1 1088.9 1568.89 1092.4C1570.71 1095.9 1573.22 1098.64 1576.42 1100.62C1579.65 1102.6 1583.31 1103.59 1587.38 1103.59Z" fill="white"/>
<path d="M1638.95 1086.93L1637.73 1023.55H1649.07L1647.85 1086.93H1638.95ZM1643.75 1111.81C1641.65 1111.81 1639.9 1111.12 1638.5 1109.75C1637.13 1108.38 1636.44 1106.69 1636.44 1104.65C1636.44 1102.68 1637.13 1101 1638.5 1099.63C1639.9 1098.26 1641.65 1097.58 1643.75 1097.58C1645.72 1097.58 1647.4 1098.26 1648.77 1099.63C1650.14 1101 1650.82 1102.68 1650.82 1104.65C1650.82 1106.69 1650.14 1108.38 1648.77 1109.75C1647.4 1111.12 1645.72 1111.81 1643.75 1111.81Z" fill="white"/>
</g>
<defs>
<clipPath id="clip0_682_51743">
<rect width="1826" height="1826" fill="white"/>
</clipPath>
</defs>
</svg>
